<svg aria-hidden="true" style="position: absolute; width: 0; height: 0; overflow: hidden;" version="1.1" xmlns="http://www.w3.org/2000/svg" xmlns:xlink="http://www.w3.org/1999/xlink">
<defs>
<symbol id="twitter" viewBox="0 0 32 32">
<path d="M32 6.078c-1.19 0.522-2.458 0.868-3.78 1.036 1.36-0.812 2.398-2.088 2.886-3.626-1.268 0.756-2.668 1.29-4.16 1.588-1.204-1.282-2.92-2.076-4.792-2.076-3.632 0-6.556 2.948-6.556 6.562 0 0.52 0.044 1.020 0.152 1.496-5.454-0.266-10.28-2.88-13.522-6.862-0.566 0.982-0.898 2.106-0.898 3.316 0 2.272 1.17 4.286 2.914 5.452-1.054-0.020-2.088-0.326-2.964-0.808 0 0.020 0 0.046 0 0.072 0 3.188 2.274 5.836 5.256 6.446-0.534 0.146-1.116 0.216-1.72 0.216-0.42 0-0.844-0.024-1.242-0.112 0.85 2.598 3.262 4.508 6.13 4.57-2.232 1.746-5.066 2.798-8.134 2.798-0.538 0-1.054-0.024-1.57-0.090 2.906 1.874 6.35 2.944 10.064 2.944 12.072 0 18.672-10 18.672-18.668 0-0.29-0.010-0.57-0.024-0.848 1.302-0.924 2.396-2.078 3.288-3.406z"></path>
</symbol>
<symbol id="linkedin" viewBox="0 0 32 32">
<path d="M31.992 32v-0.001h0.008v-11.736c0-5.741-1.236-10.164-7.948-10.164-3.227 0-5.392 1.771-6.276 3.449h-0.093v-2.913h-6.364v21.364h6.627v-10.579c0-2.785 0.528-5.479 3.977-5.479 3.399 0 3.449 3.179 3.449 5.657v10.401h6.62z"></path>
<path d="M0.528 10.636h6.635v21.364h-6.635v-21.364z"></path>
<path d="M3.843 0c-2.121 0-3.843 1.721-3.843 3.843s1.721 3.879 3.843 3.879c2.121 0 3.843-1.757 3.843-3.879-0.001-2.121-1.723-3.843-3.843-3.843v0z"></path>
</symbol>
<symbol id="instagram" viewBox="0 0 32 32">
<path d="M31.969 9.408c-0.075-1.7-0.35-2.869-0.744-3.882-0.406-1.075-1.032-2.038-1.851-2.838-0.8-0.813-1.769-1.444-2.832-1.844-1.019-0.394-2.182-0.669-3.882-0.744-1.713-0.081-2.257-0.1-6.601-0.1s-4.888 0.019-6.595 0.094c-1.7 0.075-2.869 0.35-3.882 0.744-1.075 0.406-2.038 1.031-2.838 1.85-0.813 0.8-1.444 1.769-1.844 2.832-0.394 1.019-0.669 2.182-0.744 3.882-0.081 1.713-0.1 2.257-0.1 6.601s0.019 4.888 0.094 6.595c0.075 1.7 0.35 2.869 0.744 3.882 0.406 1.075 1.038 2.038 1.85 2.838 0.8 0.813 1.769 1.444 2.832 1.844 1.019 0.394 2.182 0.669 3.882 0.744 1.706 0.075 2.25 0.094 6.595 0.094s4.888-0.019 6.595-0.094c1.7-0.075 2.869-0.35 3.882-0.744 2.151-0.832 3.851-2.532 4.682-4.682 0.394-1.019 0.669-2.182 0.744-3.882 0.075-1.707 0.094-2.251 0.094-6.595s-0.006-4.888-0.081-6.595zM29.087 22.473c-0.069 1.563-0.331 2.407-0.55 2.969-0.538 1.394-1.644 2.5-3.038 3.038-0.563 0.219-1.413 0.481-2.969 0.55-1.688 0.075-2.194 0.094-6.464 0.094s-4.782-0.019-6.464-0.094c-1.563-0.069-2.407-0.331-2.969-0.55-0.694-0.256-1.325-0.663-1.838-1.194-0.531-0.519-0.938-1.144-1.194-1.838-0.219-0.563-0.481-1.413-0.55-2.969-0.075-1.688-0.094-2.194-0.094-6.464s0.019-4.782 0.094-6.464c0.069-1.563 0.331-2.407 0.55-2.969 0.256-0.694 0.663-1.325 1.2-1.838 0.519-0.531 1.144-0.938 1.838-1.194 0.563-0.219 1.413-0.481 2.969-0.55 1.688-0.075 2.194-0.094 6.464-0.094 4.276 0 4.782 0.019 6.464 0.094 1.563 0.069 2.407 0.331 2.969 0.55 0.694 0.256 1.325 0.662 1.838 1.194 0.531 0.519 0.938 1.144 1.194 1.838 0.219 0.563 0.481 1.413 0.55 2.969 0.075 1.688 0.094 2.194 0.094 6.464s-0.019 4.77-0.094 6.458z"></path>
<path d="M16.059 7.783c-4.538 0-8.22 3.682-8.22 8.22s3.682 8.22 8.22 8.22c4.539 0 8.22-3.682 8.22-8.22s-3.682-8.22-8.22-8.22zM16.059 21.335c-2.944 0-5.332-2.388-5.332-5.332s2.388-5.332 5.332-5.332c2.944 0 5.332 2.388 5.332 5.332s-2.388 5.332-5.332 5.332z"></path>
<path d="M26.524 7.458c0 1.060-0.859 1.919-1.919 1.919s-1.919-0.859-1.919-1.919c0-1.060 0.859-1.919 1.919-1.919s1.919 0.859 1.919 1.919z"></path>
</symbol>
<symbol id="facebook" viewBox="0 0 32 32">
<path d="M21.329 5.313h2.921v-5.088c-0.504-0.069-2.237-0.225-4.256-0.225-4.212 0-7.097 2.649-7.097 7.519v4.481h-4.648v5.688h4.648v14.312h5.699v-14.311h4.46l0.708-5.688h-5.169v-3.919c0.001-1.644 0.444-2.769 2.735-2.769z"></path>
</symbol>
<symbol id="logo" viewBox="0 0 69 56">
<path d="M39.1501 16.87L37.8401 15.87C37.6353 15.7043 37.3734 15.626 37.1113 15.6522C36.8491 15.6784 36.6079 15.807 36.4401 16.01L18.3101 36.83L18.5901 37.14L23.0801 33C22.9304 32.9398 22.8066 32.8291 22.7301 32.6871C22.6537 32.5451 22.6294 32.3807 22.6615 32.2227C22.6935 32.0646 22.78 31.9227 22.9058 31.8218C23.0316 31.7208 23.1888 31.6671 23.3501 31.67C23.4955 31.67 23.6371 31.7166 23.7541 31.803C23.8711 31.8894 23.9573 32.011 24.0001 32.15L29.9201 26.66C30.0107 26.587 30.1236 26.5472 30.2401 26.5472C30.3565 26.5472 30.4694 26.587 30.5601 26.66L30.8601 26.88C30.9616 26.9528 31.0866 26.9849 31.2106 26.9701C31.3346 26.9553 31.4485 26.8946 31.5301 26.8L39.2701 18.12C39.3523 18.0339 39.4151 17.931 39.454 17.8184C39.493 17.7058 39.5073 17.5862 39.4959 17.4676C39.4845 17.349 39.4477 17.2343 39.3881 17.1312C39.3284 17.028 39.2472 16.939 39.1501 16.87Z"  />
<path d="M47.67 22.73C43.7025 25.553 39.2579 27.6364 34.55 28.88C29.8775 30.0683 25.0962 30.7786 20.28 31C20.377 31.7102 20.5514 32.4077 20.8 33.08C23.52 35.54 44 31.34 48 26.48C48.85 25.47 47.67 22.73 47.67 22.73ZM23.35 33C23.2155 33 23.0841 32.9601 22.9722 32.8854C22.8604 32.8107 22.7733 32.7045 22.7218 32.5802C22.6703 32.4559 22.6569 32.3192 22.6831 32.1873C22.7093 32.0554 22.7741 31.9342 22.8692 31.8391C22.9643 31.744 23.0855 31.6793 23.2174 31.653C23.3493 31.6268 23.486 31.6403 23.6103 31.6917C23.7345 31.7432 23.8407 31.8304 23.9154 31.9422C23.9901 32.054 24.03 32.1855 24.03 32.32C24.0314 32.4097 24.0147 32.4987 23.981 32.5818C23.9473 32.6649 23.8973 32.7404 23.8339 32.8038C23.7705 32.8672 23.695 32.9173 23.6118 32.951C23.5287 32.9847 23.4397 33.0013 23.35 33Z"  />
<path d="M4.00006 21.2899L4.16006 20.5999L6.76006 21.1899C6.97456 21.5861 7.10719 22.0214 7.15006 22.4699C7.19968 22.945 7.16926 23.425 7.06006 23.8899C6.93061 24.5352 6.63406 25.1352 6.20006 25.6299C5.78714 26.097 5.25473 26.4428 4.66006 26.6299C4.04715 26.8189 3.39526 26.8431 2.77006 26.6999C2.14348 26.5646 1.56592 26.2603 1.10006 25.8199C0.641324 25.3969 0.311921 24.8526 0.150055 24.2499C-0.0295106 23.5954 -0.0295106 22.9045 0.150055 22.2499C0.257533 21.76 0.450482 21.2929 0.720055 20.8699C0.975194 20.4853 1.3179 20.1665 1.72006 19.9399L2.08005 20.4899C1.73536 20.7016 1.43948 20.9839 1.21194 21.3183C0.984399 21.6527 0.830382 22.0316 0.760055 22.4299C0.636042 22.9473 0.646369 23.4877 0.790055 23.9999C0.924425 24.4863 1.19096 24.9259 1.56006 25.2699C1.93943 25.6367 2.41409 25.8896 2.93006 25.9999C3.43038 26.1404 3.95973 26.1404 4.46006 25.9999C4.93934 25.8417 5.36983 25.5628 5.71006 25.1899C6.0597 24.7873 6.30065 24.3019 6.41006 23.7799C6.57459 23.1468 6.53254 22.4776 6.29006 21.8699L4.00006 21.2899Z"  />
<path d="M9.66004 14.9999L7.33004 18.1099L8.33004 19.8999L7.87004 20.5199L4.17004 13.7699L4.60004 13.1799L12.13 14.7999L11.66 15.4199L9.66004 14.9999ZM9.00004 14.8399L5.00004 13.9399L7.00004 17.5299L9.00004 14.8399Z"  />
<path d="M9 8.5501L9.6 8.1001L13.41 13.2001L16.55 10.8501L16.93 11.3601L13.2 14.1501L9 8.5501Z"  />
<path d="M15.3 4.38008L15.97 4.08008L18.61 9.86008L22.18 8.24008L22.44 8.82008L18.2 10.7501L15.3 4.38008Z"  />
<path d="M28.48 6.68003L28.63 7.31003L23.81 8.44003L22.21 1.62003L26.89 0.530029L27.03 1.15003L23.03 2.08003L23.6 4.50003L27.12 3.67003L27.27 4.29003L23.74 5.11003L24.34 7.64003L28.48 6.68003Z"  />
<path d="M35.35 6.92997L33.68 4.72997C33.4934 4.74029 33.3065 4.74029 33.12 4.72997L31.24 4.78997L31.31 7.00997H30.57L30.34 0.00996866L33 -3.1339e-05C33.752 -0.0694894 34.5041 0.132721 35.12 0.569969C35.3795 0.778962 35.5882 1.04418 35.7302 1.3456C35.8723 1.64702 35.944 1.97678 35.94 2.30997C35.9692 2.80416 35.8395 3.29473 35.57 3.70997C35.2826 4.10853 34.8766 4.40603 34.41 4.55997L36.16 6.89997L35.35 6.92997ZM34.65 3.63997C34.8297 3.47531 34.9692 3.27154 35.0576 3.04439C35.146 2.81725 35.1811 2.57281 35.16 2.32997C35.1651 2.08584 35.1147 1.84374 35.0125 1.62198C34.9103 1.40022 34.7589 1.20461 34.57 1.04997C34.1091 0.737448 33.5548 0.592707 33 0.639969L31.1 0.709969L31.22 4.20997L33.08 4.14997C33.6471 4.17096 34.2034 3.99026 34.65 3.63997Z"  />
<path d="M40.64 5.07L40.28 7.46L39.55 7.35L39.92 5L37.85 0L38.63 0.12L40.4 4.38L43.4 0.85L44.1 1L40.64 5.07Z"  />
<path d="M50.53 4.64993L51.4001 5.77993L51.0201 6.07993L50.1501 4.91993L49.6 6.22993L49.18 6.04993L49.7401 4.73993L48.3 4.92993V4.44993L49.7201 4.28993L48.84 3.15993L49.23 2.85993L50 3.99993L50.5401 2.67993L50.9701 2.85993L50.46 4.19993L51.9001 3.99993V4.48993L50.53 4.64993Z"  />
<path d="M53.8699 12.7099C53.6338 12.3458 53.4865 11.9314 53.4399 11.4999L54.0299 11.2399C54.0742 11.6363 54.2038 12.0184 54.4099 12.3599C54.6333 12.7428 54.9248 13.0817 55.2699 13.3599C55.6264 13.7012 56.0812 13.9216 56.5699 13.9899C56.7465 14.0063 56.9244 13.9793 57.0883 13.9114C57.2521 13.8434 57.3968 13.7365 57.5099 13.5999C57.5929 13.5084 57.6561 13.4008 57.6957 13.2838C57.7352 13.1669 57.7503 13.043 57.7399 12.9199C57.7069 12.6762 57.6253 12.4416 57.4999 12.2299C57.312 11.923 57.1084 11.6259 56.8899 11.3399C56.6237 10.9911 56.3831 10.6235 56.1699 10.2399C56.007 9.95284 55.9177 9.6299 55.9099 9.29992C55.9092 8.92934 56.0485 8.57218 56.2999 8.29992C56.5179 8.03604 56.8054 7.83857 57.1299 7.72992C57.4925 7.62518 57.8774 7.62518 58.2399 7.72992C58.7071 7.88269 59.1389 8.12751 59.5099 8.44992C59.8178 8.70599 60.0902 9.00192 60.3199 9.32992C60.5324 9.63408 60.6913 9.97227 60.7899 10.3299L60.2199 10.6299C60.1205 10.2966 59.9722 9.97979 59.7799 9.68992C59.5884 9.43106 59.3631 9.199 59.1099 8.99992C58.7588 8.66016 58.3054 8.44575 57.8199 8.38992C57.6416 8.375 57.4623 8.40466 57.2982 8.47623C57.1341 8.5478 56.9904 8.65903 56.8799 8.79992C56.7949 8.89 56.7303 8.99741 56.6906 9.11477C56.6509 9.23214 56.637 9.35669 56.6499 9.47992C56.6733 9.73209 56.7555 9.97526 56.8899 10.1899C57.0299 10.4199 57.2299 10.7199 57.4999 11.0799C57.7676 11.4207 58.0083 11.7818 58.2199 12.1599C58.3863 12.4461 58.4791 12.7691 58.4899 13.0999C58.4906 13.4705 58.3513 13.8277 58.0999 14.0999C57.8812 14.3674 57.5893 14.5655 57.2599 14.6699C56.898 14.7792 56.5119 14.7792 56.1499 14.6699C55.6796 14.5176 55.2444 14.2728 54.8699 13.9499C54.4663 13.5986 54.1278 13.1788 53.8699 12.7099Z"  />
<path d="M63.93 14.17L62.52 12.17L63.04 11.8L66.29 16.44L65.77 16.81L64.36 14.81L59.14 18.46L58.72 17.85L63.93 14.17Z"  />
<path d="M61.69 22.39C61.8685 21.7856 62.2153 21.2445 62.69 20.83C63.1543 20.4141 63.7199 20.1279 64.33 20C64.9519 19.8572 65.6004 19.8814 66.21 20.07C66.7983 20.2645 67.3257 20.6092 67.74 21.07C68.1708 21.5656 68.4639 22.1656 68.59 22.81C68.7556 23.4426 68.7556 24.1073 68.59 24.74C68.4065 25.3421 68.0605 25.8819 67.59 26.3C67.1128 26.727 66.5333 27.0233 65.9077 27.16C65.2821 27.2967 64.6318 27.2691 64.02 27.08C63.4271 26.8949 62.8974 26.5487 62.49 26.08C62.0611 25.587 61.7682 24.9907 61.64 24.35C61.4872 23.7033 61.5044 23.028 61.69 22.39ZM63 25.57C63.3339 25.9502 63.7665 26.2306 64.25 26.38C64.7483 26.5245 65.2749 26.5417 65.7816 26.4298C66.2883 26.318 66.7588 26.0808 67.15 25.74C67.5191 25.4004 67.7916 24.9691 67.94 24.49C68.0794 23.9841 68.0931 23.4517 67.9798 22.9393C67.8665 22.4269 67.6297 21.95 67.29 21.55C66.9414 21.1679 66.4955 20.8879 66 20.74C65.4954 20.606 64.9646 20.606 64.46 20.74C63.9508 20.8377 63.4795 21.0768 63.1 21.43C62.7275 21.7708 62.4545 22.2062 62.31 22.69C62.1742 23.1977 62.1742 23.7322 62.31 24.24C62.4195 24.7361 62.6574 25.1947 63 25.57Z"  />
<path d="M60.93 33.9999L63.52 32.9999C63.52 32.8199 63.58 32.6399 63.63 32.4499L64.12 30.6399L62 30.0899L62.19 29.3799L68.95 31.1899L68.27 33.7199C68.1168 34.4581 67.7055 35.1176 67.11 35.5799C66.8363 35.7699 66.5224 35.8941 66.1928 35.9427C65.8632 35.9912 65.5268 35.9629 65.21 35.8599C64.7274 35.7552 64.295 35.4891 63.9841 35.1055C63.6732 34.7219 63.5024 34.2437 63.5 33.7499L60.74 34.7499L60.93 33.9999ZM64.28 34.2799C64.3971 34.4924 64.556 34.679 64.7472 34.8286C64.9383 34.9781 65.1577 35.0875 65.3921 35.1501C65.6266 35.2126 65.8713 35.2272 66.1115 35.1928C66.3517 35.1584 66.5825 35.0758 66.79 34.9499C67.2314 34.5954 67.5326 34.0957 67.64 33.5399L68.12 31.7399L64.73 30.8299L64.25 32.6299C64.0655 33.1663 64.0761 33.7506 64.28 34.2799Z"  />
<path d="M57.34 40.4401L56.83 40.0501L59.83 36.1001L65.41 40.3301L62.51 44.1601L62 43.7701L64.45 40.5401L62.45 39.0301L60.26 41.9201L59.76 41.5401L62 38.6501L59.93 37.0801L57.34 40.4401Z"  />
<path d="M54.9999 48.4099L53.5699 48.4899V48.0099L54.9999 47.9999L54.2299 46.8099L54.6199 46.5599L55.3799 47.7599L55.9999 46.4199L56.4299 46.6499L55.7499 47.9099L57.1799 47.8299V48.3199H55.7299L56.4999 49.5099L56.1099 49.7599L55.3499 48.5599L54.6899 49.8599L54.2699 49.6199L54.9999 48.4099Z"  />
<path d="M42 47.6099L43.21 48.2799C43.4128 47.8902 43.696 47.5479 44.0407 47.2756C44.3854 47.0033 44.7839 46.8071 45.21 46.6999C45.6074 46.576 46.0254 46.5318 46.44 46.5699C46.7997 46.5975 47.1452 46.7219 47.44 46.9299C47.7064 47.1308 47.9025 47.4108 48 47.7299C48.1205 48.1247 48.0993 48.5491 47.94 48.9299C47.6891 49.4473 47.3508 49.9175 46.94 50.3199C47.2697 50.4971 47.5755 50.7155 47.85 50.9699C48.0386 51.1648 48.179 51.4011 48.26 51.6599C48.3112 51.8617 48.3144 52.0726 48.2693 52.2759C48.2241 52.4791 48.1319 52.6688 48 52.8299C47.733 53.2146 47.3347 53.4884 46.88 53.5999C46.4807 53.7522 46.0393 53.7522 45.64 53.5999C45.4624 53.5235 45.305 53.407 45.1801 53.2596C45.0551 53.1121 44.9661 52.9376 44.92 52.7499C44.8151 52.4198 44.8402 52.0622 44.99 51.7499C45.2195 51.2953 45.52 50.8801 45.88 50.5199L43.47 49.1799C43.378 49.6508 43.3578 50.1329 43.41 50.6099H42.8C42.7589 50.0225 42.8267 49.4326 43 48.8699L41.74 48.1699L42 47.6099ZM43.74 48.6099L46.39 50.0799C46.7373 49.7483 47.0248 49.3592 47.24 48.9299C47.3499 48.64 47.3499 48.3199 47.24 48.0299C47.1946 47.8567 47.1069 47.6974 46.9847 47.5665C46.8625 47.4356 46.7097 47.3371 46.54 47.2799C46.1248 47.1397 45.6751 47.1397 45.26 47.2799C44.9207 47.3694 44.6053 47.5322 44.3357 47.7568C44.0662 47.9814 43.8492 48.2624 43.7 48.5799L43.74 48.6099ZM47.5 52.6099C47.5653 52.4994 47.6063 52.3762 47.6201 52.2486C47.6339 52.1209 47.6202 51.9918 47.58 51.8699C47.5187 51.6724 47.4087 51.4936 47.26 51.3499C47.0054 51.1352 46.7269 50.9506 46.43 50.7999C46.1268 51.0997 45.8615 51.4356 45.64 51.7999C45.5191 52.0271 45.4904 52.2921 45.56 52.5399C45.5917 52.6543 45.6473 52.7607 45.7232 52.8521C45.799 52.9434 45.8934 53.0177 46 53.0699C46.2546 53.1659 46.5354 53.1659 46.79 53.0699C47.0619 52.9974 47.2992 52.8309 47.46 52.5999L47.5 52.6099Z"  />
<path d="M29.8101 55.3201L29.9501 48.3201H30.6601L30.5501 53.9201L33.3901 49.2601H33.7401L36.4001 54.0001L36.5001 48.4301H37.2101L37.0801 55.4301H36.4701L33.5301 50.2001L30.4201 55.3301L29.8101 55.3201Z"  />
<path d="M26.33 48.0001C26.7873 48.4359 27.1145 48.9902 27.2752 49.6012C27.4359 50.2121 27.4237 50.8557 27.24 51.4601C27.0757 52.079 26.7475 52.6421 26.29 53.0901C25.8454 53.5271 25.2879 53.8318 24.68 53.9701C24.0387 54.1148 23.3711 54.0941 22.74 53.9101C22.111 53.7565 21.5323 53.443 21.06 53.0001C20.6095 52.5698 20.2875 52.0228 20.13 51.4201C19.9762 50.7971 19.9876 50.1447 20.1629 49.5274C20.3383 48.9101 20.6716 48.3492 21.13 47.9001C21.5667 47.4642 22.1123 47.1534 22.71 47.0001C23.348 46.8558 24.0122 46.8765 24.64 47.0601C25.2755 47.2212 25.858 47.5452 26.33 48.0001ZM22.92 47.6501C22.4308 47.764 21.9837 48.0135 21.63 48.3701C21.2616 48.737 20.9991 49.1965 20.87 49.7001C20.7305 50.2006 20.7305 50.7296 20.87 51.2301C20.9879 51.717 21.241 52.1607 21.6 52.5101C21.9765 52.8783 22.4414 53.1435 22.95 53.2801C23.4585 53.4096 23.9914 53.4096 24.5 53.2801C24.9895 53.1597 25.4382 52.9112 25.8 52.5601C26.1664 52.1917 26.4286 51.7328 26.56 51.2301C26.6998 50.7263 26.6998 50.1939 26.56 49.6901C26.432 49.205 26.1765 48.7631 25.82 48.4101C25.4415 48.0414 24.9723 47.7792 24.46 47.6501C23.9561 47.5108 23.4239 47.5108 22.92 47.6501Z"  />
<path d="M15.35 43L15.62 45.75C15.7916 45.8233 15.9585 45.9068 16.12 46L17.75 46.94L18.85 45L19.5 45.37L16 51.4L13.72 50.09C13.0461 49.7515 12.5145 49.1844 12.22 48.49C12.1113 48.1772 12.0747 47.8439 12.1127 47.5149C12.1508 47.1859 12.2627 46.8698 12.44 46.59C12.6725 46.1518 13.041 45.8008 13.49 45.59C13.9461 45.4011 14.4506 45.3626 14.93 45.48L14.64 42.54L15.35 43ZM14.21 46.16C13.9752 46.219 13.7546 46.3247 13.5615 46.4708C13.3685 46.617 13.2069 46.8006 13.0864 47.0107C12.966 47.2207 12.8892 47.4529 12.8606 47.6934C12.832 47.9338 12.8522 48.1776 12.92 48.41C13.1544 48.9276 13.5608 49.3481 14.07 49.6L15.68 50.53L17.43 47.53L15.82 46.6C15.3573 46.2533 14.7875 46.0799 14.21 46.11V46.16Z"  />
<path d="M9.43 38.3101L9.88 37.8601L13.33 41.4101L8.33 46.2901L5 42.8501L5.46 42.4001L8.29 45.3101L10 43.5801L7.52 41.0001L8 40.5401L10.53 43.1401L12.39 41.3301L9.43 38.3101Z"  />
<path d="M1.99999 34.38L2.23999 33L2.70999 33.07L2.43999 34.49L3.76999 34L3.92999 34.44L2.57999 34.9L3.68999 35.84L3.36999 36.2L2.29999 35.2L2.04999 36.62L1.56999 36.53L1.84999 35.11L0.509985 35.59L0.359985 35.2L1.69999 34.73L0.589985 33.8L0.919985 33.44L1.99999 34.38Z"  /></symbol>
<symbol id="phone" viewBox="0 0 24 24">
<path d="M23 16.92c0.016-0.714-0.236-1.404-0.673-1.943-0.46-0.566-1.129-0.967-1.925-1.080-0.8-0.098-1.695-0.314-2.586-0.646-0.433-0.159-0.893-0.218-1.344-0.174-0.663 0.064-1.307 0.349-1.819 0.855l-0.72 0.72c-1.77-1.117-3.36-2.667-4.583-4.589l0.726-0.726c0.322-0.33 0.563-0.726 0.707-1.156 0.212-0.632 0.214-1.336-0.039-2.011-0.289-0.753-0.518-1.644-0.644-2.595-0.104-0.714-0.456-1.345-0.963-1.804-0.539-0.486-1.256-0.779-2.027-0.771h-2.996c-0.088 0-0.182 0.004-0.273 0.012-0.824 0.075-1.542 0.478-2.033 1.066s-0.758 1.367-0.683 2.199c0.3 3.076 1.365 6.243 3.216 9.102 1.502 2.413 3.648 4.623 6.298 6.306 2.568 1.697 5.684 2.862 9.086 3.231 0.092 0.009 0.191 0.013 0.288 0.013 0.828-0.003 1.578-0.343 2.118-0.887s0.873-1.297 0.87-2.121zM21 16.92v3c0.001 0.28-0.109 0.53-0.29 0.712s-0.429 0.295-0.706 0.296c-3.149-0.336-5.961-1.391-8.263-2.912-2.428-1.543-4.359-3.537-5.702-5.694-1.697-2.62-2.655-5.481-2.924-8.238-0.024-0.268 0.064-0.526 0.229-0.724s0.403-0.33 0.678-0.355l3.088-0.005c0.271-0.003 0.507 0.094 0.687 0.256 0.17 0.154 0.288 0.366 0.323 0.608 0.142 1.072 0.408 2.117 0.757 3.025 0.081 0.216 0.080 0.447 0.010 0.658-0.049 0.145-0.131 0.281-0.242 0.395l-1.262 1.261c-0.324 0.324-0.379 0.814-0.162 1.201 1.584 2.785 3.839 4.957 6.381 6.378 0.397 0.222 0.882 0.144 1.195-0.166l1.27-1.27c0.166-0.164 0.377-0.257 0.598-0.279 0.152-0.015 0.31 0.005 0.459 0.060 1.022 0.381 2.070 0.636 3.034 0.754 0.241 0.034 0.462 0.166 0.615 0.355 0.147 0.181 0.231 0.412 0.226 0.682z"></path>
</symbol>
<symbol id="map-pin" viewBox="0 0 24 24">
<path d="M22 10c0-2.761-1.12-5.263-2.929-7.071s-4.31-2.929-7.071-2.929-5.263 1.12-7.071 2.929-2.929 4.31-2.929 7.071c0 0.569 0.053 1.128 0.15 1.676 0.274 1.548 0.899 3.004 1.682 4.32 2.732 4.591 7.613 7.836 7.613 7.836 0.331 0.217 0.765 0.229 1.109 0 0 0 4.882-3.245 7.613-7.836 0.783-1.316 1.408-2.772 1.682-4.32 0.098-0.548 0.151-1.107 0.151-1.676zM20 10c0 0.444-0.041 0.887-0.119 1.328-0.221 1.25-0.737 2.478-1.432 3.646-1.912 3.214-5.036 5.747-6.369 6.74-1.398-0.916-4.588-3.477-6.53-6.74-0.695-1.168-1.211-2.396-1.432-3.646-0.077-0.441-0.118-0.884-0.118-1.328 0-2.209 0.894-4.208 2.343-5.657s3.448-2.343 5.657-2.343 4.208 0.894 5.657 2.343 2.343 3.448 2.343 5.657zM16 10c0-1.104-0.449-2.106-1.172-2.828s-1.724-1.172-2.828-1.172-2.106 0.449-2.828 1.172-1.172 1.724-1.172 2.828 0.449 2.106 1.172 2.828 1.724 1.172 2.828 1.172 2.106-0.449 2.828-1.172 1.172-1.724 1.172-2.828zM14 10c0 0.553-0.223 1.051-0.586 1.414s-0.861 0.586-1.414 0.586-1.051-0.223-1.414-0.586-0.586-0.861-0.586-1.414 0.223-1.051 0.586-1.414 0.861-0.586 1.414-0.586 1.051 0.223 1.414 0.586 0.586 0.861 0.586 1.414z"></path>
</symbol>
<symbol id="mail" viewBox="0 0 43 32">
<path d="M38.667 0H4C1.794 0 0 1.794 0 4v24c0 2.206 1.794 4 4 4h34.667c2.206 0 4-1.794 4-4V4c0-2.206-1.794-4-4-4zm0 2.667c.181 0 .353.038.511.103L21.334 18.236 3.49 2.77a1.32 1.32 0 0 1 .511-.103h34.667zm0 26.666H4A1.334 1.334 0 0 1 2.667 28V5.587L20.46 21.008a1.335 1.335 0 0 0 1.748 0L40.001 5.587V28c0 .736-.598 1.333-1.333 1.333z"/>
</symbol>
</defs>
</svg>
